<?xml version="1.0" encoding="UTF-8"?>
<svg id="Capa_1" xmlns="http://www.w3.org/2000/svg" xmlns:xlink="http://www.w3.org/1999/xlink" version="1.1" viewBox="24.2 87.9 529.7 573.0">
  <!-- Generator: Adobe Illustrator 29.8.3, SVG Export Plug-In . SVG Version: 2.1.1 Build 3)  -->
  <defs>
    <style>
      .st0, .st1, .st2 {
        fill: none;
      }

      .st1 {
        stroke-miterlimit: 10;
        stroke-width: 9px;
      }

      .st1, .st2 {
        stroke: #fff;
      }

      .st3 {
        fill: #e0776c;
      }

      .st4 {
        fill: #bc3019;
      }

      .st2 {
        stroke-linecap: round;
        stroke-linejoin: round;
        stroke-width: 11px;
      }

      .st5 {
        font-family: BebasKai, 'Bebas Kai';
        font-size: 80px;
      }

      .st6 {
        clip-path: url(#clippath);
      }

      .st7 {
        fill: #7f3028;
      }
    </style>
    <clipPath id="clippath">
      <polygon class="st0" points="241.69 291.09 309.39 259.32 376.81 323.76 436.99 446.57 508.5 252.45 407.47 203.69 172.28 205.04 136.05 265.38 160.76 396.69 221.13 319.69 241.69 291.09"/>
    </clipPath>
    <path id="path" d="M503.91,384.44c0-117-94.85-211.85-211.85-211.85s-211.85,94.85-211.85,211.85,94.85,211.85,211.85,211.85,211.85-94.85,211.85-211.85Z"/>
  </defs>
  <path class="st2" d="M476.56,286.77c-4.88-5.6-9.92-11.39-14.81-17.14-.34-.39-.58-1.27-.55-1.99.5-12.06-5.93-25.65-12.44-31.82-4.01-3.81-12.59-8.16-21.23-9.12-1.51-.17-2.97-.22-4.34-.16-20.75.96-32.77,16.03-35.89,26.1-.11.07-.28.14-.38.16-3.37-.54-6.79-1.15-10.1-1.74-2.45-.43-4.89-.87-7.34-1.28-.41-.07-.55-.16-.55-.15-.01-.03-.06-.2-.02-.64.96-9.98,1.85-19.73,2.67-28.98.03-.31.06-.48.09-.57.09-.02.26-.04.56-.04,9.37-.01,17.63-2.92,24.54-8.64l1.15-.95c2.46-2.03,5-4.12,7.27-6.47,3.86-4,6.1-8.94,6.65-14.68.09-.95.19-1.91.28-2.86.43-4.26.87-8.66,1.02-13.02.18-5.21-1.51-10.36-5.15-15.75-6.79-10.05-15.08-16.92-25.32-20.99-.69-.27-1.53-1.1-1.96-1.93-4.2-8.08-8.39-16.34-12.45-24.33l-3.89-7.66-1.89-.21-.48.34c-1.12.79-2.23,1.58-3.35,2.37-2.43,1.73-4.94,3.51-7.43,5.22-5.2,3.57-11.09,7.62-16.92,11.43-.52.34-1.53.51-2.45.41l-.37-.04c-1.41-.16-2.82-.34-4.24-.52-1.43-.18-2.87-.37-4.3-.53-4.65-.51-10.14-.86-15.55.49-15.21,3.79-25.37,12.77-29.37,25.97-5.07,16.74-2.73,29.92,7.15,40.29,1.53,1.61,2.94,3.34,4.44,5.17.48.59.97,1.19,1.47,1.79l-.48.79c-.77,1.25-1.56,2.54-2.35,3.83-2.02,3.26-4.05,6.51-6.07,9.76-5.71,9.18-11.62,18.68-17.37,28.05-.72,1.17-1.28,1.46-2.62,1.32-3.14-.32-6.3-.39-9.27-.44-.15,0-.28,0-.41-.02-.22-.02-.3-.06-.3-.06-.01-.01-.11-.15-.2-.6-1.87-9.39-8.47-19.04-11.22-22.75-3.81-5.14-11.69-11.05-22.39-12.24-6.12-.68-12.34.29-18.46,2.89-12.97,5.49-21.27,16.47-23.35,30.92-.15,1.03-.67,1.96-1.49,2.6-5.49,4.21-11.04,8.54-16.41,12.73-1.85,1.45-3.7,2.89-5.56,4.33l-.51.4-.19,1.75.39.5c1.61,2.03,3.21,4.06,4.81,6.1,4.53,5.75,9.21,11.69,13.9,17.48.9,1.11,1.01,1.7.54,2.9-.51,1.29-.7,2.88-.6,4.86.49,9.41,8.34,29.33,24.29,32.75,2.13.46,4.27.81,6.37,1.04,12,1.33,21.55-1.34,25.36-4.37.94-.75,1.91-1.49,2.92-2.25l-40.69,161.39-2.58,9.43s11.09-2.72,25.67-6.35l-68.01,163.95,1.28.95-.15.37c.09-.09.19-.18.28-.28l1.25.93,229.42-229.58,2.83-8.51-1.95-3.22-76.1,6.84c0-.26,50.45-90.82,58.02-102.28.16-.22.82-.54,1.08-.53,2.12.2,4.41.44,7.19.75,1.77.2,3.54.4,5.3.6,1.77.2,3.54.4,5.31.6l1.57.17c.24.03.37.06.44.08.01.06.03.17.04.35.43,11.59,8.1,27.02,23.92,33.52,1.7.7,3.93,1.2,6.64,1.5h0c7.64.84,17.64-.11,22.76-2.18,8.26-3.33,18.64-14.41,21.03-26.5.68-3.42,2.18-5.73,5.21-7.98,4.91-3.64,9.78-7.49,14.49-11.21,1.95-1.54,3.9-3.08,5.86-4.61l.51-.4.25-2.27-4.66-5.36Z"/>
  <path class="st1" d="M476.19,286.77c-4.88-5.6-9.92-11.39-14.81-17.14-.34-.39-.58-1.27-.55-1.99.5-12.06-5.93-25.65-12.44-31.82-4.01-3.81-12.59-8.16-21.23-9.12-1.51-.17-2.97-.22-4.34-.16-20.75.96-32.77,16.03-35.89,26.1-.11.07-.28.14-.38.16-3.37-.54-6.79-1.15-10.1-1.74-2.45-.43-4.89-.87-7.34-1.28-.41-.07-.55-.16-.55-.15-.01-.03-.06-.2-.02-.64.96-9.98,1.85-19.73,2.67-28.98.03-.31.06-.48.09-.57.09-.02.26-.04.56-.04,9.37-.01,17.63-2.92,24.54-8.64l1.15-.95c2.46-2.03,5-4.12,7.27-6.47,3.86-4,6.1-8.94,6.65-14.68.09-.95.19-1.91.28-2.86.43-4.26.87-8.66,1.02-13.02.18-5.21-1.51-10.36-5.15-15.75-6.79-10.05-15.08-16.92-25.32-20.99-.69-.27-1.53-1.1-1.96-1.93-4.2-8.08-8.39-16.34-12.45-24.33l-3.89-7.66-1.89-.21-.48.34c-1.12.79-2.23,1.58-3.35,2.37-2.43,1.73-4.94,3.51-7.43,5.22-5.2,3.57-11.09,7.62-16.92,11.43-.52.34-1.53.51-2.45.41l-.37-.04c-1.41-.16-2.82-.34-4.24-.52-1.43-.18-2.87-.37-4.3-.53-4.65-.51-10.14-.86-15.55.49-15.21,3.79-25.37,12.77-29.37,25.97-5.07,16.74-2.73,29.92,7.15,40.29,1.53,1.61,2.94,3.34,4.44,5.17.48.59.97,1.19,1.47,1.79l-.48.79c-.77,1.25-1.56,2.54-2.35,3.83-2.02,3.26-4.05,6.51-6.07,9.76-5.71,9.18-11.62,18.68-17.37,28.05-.72,1.17-1.28,1.46-2.62,1.32-3.14-.32-6.3-.39-9.27-.44-.15,0-.28,0-.41-.02-.22-.02-.3-.06-.3-.06-.01-.01-.11-.15-.2-.6-1.87-9.39-8.47-19.04-11.22-22.75-3.81-5.14-11.69-11.05-22.39-12.24-6.12-.68-12.34.29-18.46,2.89-12.97,5.49-21.27,16.47-23.35,30.92-.15,1.03-.67,1.96-1.49,2.6-5.49,4.21-11.04,8.54-16.41,12.73-1.85,1.45-3.7,2.89-5.56,4.33l-.51.4-.19,1.75.39.5c1.61,2.03,3.21,4.06,4.81,6.1,4.53,5.75,9.21,11.69,13.9,17.48.9,1.11,1.01,1.7.54,2.9-.51,1.29-.7,2.88-.6,4.86.49,9.41,8.34,29.33,24.29,32.75,2.13.46,4.27.81,6.37,1.04,12,1.33,21.55-1.34,25.36-4.37.94-.75,1.91-1.49,2.92-2.25l-40.69,161.39-2.58,9.43s11.09-2.72,25.67-6.35l-68.01,163.95,1.28.95-.15.37c.09-.09.19-.18.28-.28l1.25.93,229.42-229.58,2.83-8.51-1.95-3.22-76.1,6.84c0-.26,50.45-90.82,58.02-102.28.16-.22.82-.54,1.08-.53,2.12.2,4.41.44,7.19.75,1.77.2,3.54.4,5.3.6,1.77.2,3.54.4,5.31.6l1.57.17c.24.03.37.06.44.08.01.06.03.17.04.35.43,11.59,8.1,27.02,23.92,33.52,1.7.7,3.93,1.2,6.64,1.5h0c7.64.84,17.64-.11,22.76-2.18,8.26-3.33,18.64-14.41,21.03-26.5.68-3.42,2.18-5.73,5.21-7.98,4.91-3.64,9.78-7.49,14.49-11.21,1.95-1.54,3.9-3.08,5.86-4.61l.51-.4.25-2.27-4.66-5.36Z"/>
  <g>
    <path d="M444.14,220.93c.73.35,1.45.73,2.17,1.15,10.01,5.83,16.8,13.75,20.47,23.59,30.53,38.72,48.76,87.55,48.76,140.57,0,125.41-102.03,227.45-227.45,227.45-27.92,0-54.68-5.07-79.41-14.31-1.09,1.1-2.17,2.19-3.24,3.26,26.04,9.93,53.95,15.13,82.65,15.13,61.84,0,119.99-24.08,163.72-67.81,43.73-43.73,67.81-101.87,67.81-163.72s-24.08-119.99-67.81-163.72c-9.86-9.86-20.46-18.71-31.67-26.53-.31,1.47-.75,2.88-1.3,4.24,8.92,6.29,17.38,13.21,25.3,20.69Z"/>
    <path d="M56.56,386.24c0,61.84,24.08,119.99,67.81,163.72,11.41,11.41,23.81,21.47,36.98,30.12.54-1.33,1.09-2.65,1.63-3.98-61.61-40.74-102.35-110.62-102.35-189.85,0-118.28,90.75-215.74,206.28-226.45.03-1.38.08-2.76.16-4.12-53.91,4.82-103.96,28.12-142.7,66.86-43.73,43.73-67.81,101.87-67.81,163.72Z"/>
    <path d="M144.94,390.93c0-29.42,8.71-56.82,23.64-79.72-.38-.65-.75-1.31-1.1-1.98-15.49,23.38-24.54,51.49-24.54,81.69,0,36.57,13.26,70.06,35.16,95.81.18-.82.37-1.63.56-2.45-21.03-25.25-33.72-57.83-33.72-93.37Z"/>
    <path d="M426.77,435.31c-.68-.07-1.35-.16-2.01-.27-18.48,58.49-72.69,100.96-136.52,100.96-5.41,0-10.74-.32-16-.91-.59.6-1.19,1.2-1.78,1.81,5.83.72,11.76,1.1,17.78,1.1,64.84,0,119.89-43.22,138.53-102.69Z"/>
    <path d="M179.81,479.42c.75-3.14,1.48-6.11,2.11-8.71-16.51-22.37-26.3-50.11-26.3-80.12,0-25.83,7.26-49.97,19.81-70.45-1.72-1.8-3.3-3.68-4.72-5.66-13.97,21.97-22.08,48.11-22.08,76.12,0,33.64,11.7,64.56,31.19,88.82Z"/>
    <path d="M288.01,524.66c-1.8,0-3.58-.05-5.36-.12-2.17,2.2-4.34,4.4-6.51,6.6,3.92.34,7.87.52,11.87.52,61.88,0,114.46-41.02,132.61-97.59-2.24-.66-4.42-1.49-6.61-2.33-17.19,53.85-67.17,92.92-126,92.92Z"/>
    <path d="M159.57,584.46c-13.54-8.88-26.27-19.2-37.98-30.91-44.73-44.73-69.37-104.21-69.37-167.47s24.64-122.74,69.37-167.47c39.63-39.63,90.84-63.48,146-68.4.69-5.04,2.08-9.91,4.86-14.42-60.75,3.94-117.32,29.47-160.76,72.92-47.38,47.38-73.47,110.37-73.47,177.37s26.09,129.99,73.47,177.37c13.09,13.09,27.37,24.54,42.59,34.28,1.45-3.78,2.7-6.95,3.58-9.1.57-1.39,1.14-2.78,1.7-4.16Z"/>
    <path d="M466.43,208.7c-13.63-13.63-28.55-25.48-44.48-35.47-.05,5.39-.33,10.76-.9,16.11,12.61,8.5,24.49,18.27,35.48,29.26,44.73,44.73,69.37,104.21,69.37,167.47s-24.64,122.74-69.37,167.47-104.21,69.37-167.47,69.37c-30.38,0-59.89-5.7-87.31-16.56-3.71,3.73-7.29,7.32-10.71,10.74,30.6,12.99,63.78,19.82,98.02,19.82,67,0,129.99-26.09,177.37-73.47s73.47-110.37,73.47-177.37-26.09-129.99-73.47-177.37Z"/>
  </g>
  <g>
    <path d="M476.56,286.77c-4.88-5.6-9.92-11.39-14.81-17.14-.34-.39-.58-1.27-.55-1.99.5-12.06-5.93-25.65-12.44-31.82-4.01-3.81-12.59-8.16-21.23-9.12-1.51-.17-2.97-.22-4.34-.16-20.75.96-32.77,16.03-35.89,26.1-.11.07-.28.14-.38.16-3.37-.54-6.79-1.15-10.1-1.74-2.45-.43-4.89-.87-7.34-1.28-.41-.07-.55-.16-.55-.15-.01-.03-.06-.2-.02-.64.96-9.98,1.85-19.73,2.67-28.98.03-.31.06-.48.09-.57.09-.02.26-.04.56-.04,9.37-.01,17.63-2.92,24.54-8.64l1.15-.95c2.46-2.03,5-4.12,7.27-6.47,3.86-4,6.1-8.94,6.65-14.68.09-.95.19-1.91.28-2.86.43-4.26.87-8.66,1.02-13.02.18-5.21-1.51-10.36-5.15-15.75-6.79-10.05-15.08-16.92-25.32-20.99-.69-.27-1.53-1.1-1.96-1.93-4.2-8.08-8.39-16.34-12.45-24.33l-3.89-7.66-1.89-.21-.48.34c-1.12.79-2.23,1.58-3.35,2.37-2.43,1.73-4.94,3.51-7.43,5.22-5.2,3.57-11.09,7.62-16.92,11.43-.52.34-1.53.51-2.45.41l-.37-.04c-1.41-.16-2.82-.34-4.24-.52-1.43-.18-2.87-.37-4.3-.53-4.65-.51-10.14-.86-15.55.49-15.21,3.79-25.37,12.77-29.37,25.97-5.07,16.74-2.73,29.92,7.15,40.29,1.53,1.61,2.94,3.34,4.44,5.17.48.59.97,1.19,1.47,1.79l-.48.79c-.77,1.25-1.56,2.54-2.35,3.83-2.02,3.26-4.05,6.51-6.07,9.76-5.71,9.18-11.62,18.68-17.37,28.05-.72,1.17-1.28,1.46-2.62,1.32-3.14-.32-6.3-.39-9.27-.44-.15,0-.28,0-.41-.02-.22-.02-.3-.06-.3-.06-.01-.01-.11-.15-.2-.6-1.87-9.39-8.47-19.04-11.22-22.75-3.81-5.14-11.69-11.05-22.39-12.24-6.12-.68-12.34.29-18.46,2.89-12.97,5.49-21.27,16.47-23.35,30.92-.15,1.03-.67,1.96-1.49,2.6-5.49,4.21-11.04,8.54-16.41,12.73-1.85,1.45-3.7,2.89-5.56,4.33l-.51.4-.19,1.75.39.5c1.61,2.03,3.21,4.06,4.81,6.1,4.53,5.75,9.21,11.69,13.9,17.48.9,1.11,1.01,1.7.54,2.9-.51,1.29-.7,2.88-.6,4.86.49,9.41,8.34,29.33,24.29,32.75,2.13.46,4.27.81,6.37,1.04,12,1.33,21.55-1.34,25.36-4.37.94-.75,1.91-1.49,2.92-2.25l-40.69,161.39-2.58,9.43s11.09-2.72,25.67-6.35l-68.01,163.95,1.28.95-.15.37c.09-.09.19-.18.28-.28l1.25.93,229.42-229.58,2.83-8.51-1.95-3.22-76.1,6.84c0-.26,50.45-90.82,58.02-102.28.16-.22.82-.54,1.08-.53,2.12.2,4.41.44,7.19.75,1.77.2,3.54.4,5.3.6,1.77.2,3.54.4,5.31.6l1.57.17c.24.03.37.06.44.08.01.06.03.17.04.35.43,11.59,8.1,27.02,23.92,33.52,1.7.7,3.93,1.2,6.64,1.5h0c7.64.84,17.64-.11,22.76-2.18,8.26-3.33,18.64-14.41,21.03-26.5.68-3.42,2.18-5.73,5.21-7.98,4.91-3.64,9.78-7.49,14.49-11.21,1.95-1.54,3.9-3.08,5.86-4.61l.51-.4.25-2.27-4.66-5.36ZM461.89,293.69c-4.9,3.36-9.04,6.05-13.04,8.47-.23.14-.81.25-1.46.17-.27-.03-.53-.09-.72-.16-1.36-.53-2.65-1.25-4.02-2.01-.67-.38-1.35-.75-2.03-1.11-.56-.29-1.12-.53-1.67-.76-.23-.1-.47-.2-.7-.3l-1.12-.5-1.92,2.55.89.95c.52.56,1.04,1.12,1.56,1.68,1.18,1.28,2.4,2.61,3.7,3.85,1.73,1.66,2.14,3.03,1.54,5.06-1.95,6.55-4.58,13.93-11.1,18.58-4.9,3.5-10.46,5.03-16.08,4.41-6.9-.76-13.13-4.82-17.09-11.14-2.35-3.75-3.85-7.89-4.47-12.32,1.03.52,2.02.99,3.06,1.35,1.13.38,2.24.64,3.3.75,3.55.39,6.65-.66,9.24-3.12.98-.93,2.32-2.97,2.01-4.78-.21-1.26-1.35-2.24-3.79-3.26-.57-.24-1.19-.38-2.01-.47-.3-.03-.61-.06-.92-.08-.27-.02-.54-.04-.81-.07-12.96-1.44-25.91-2.87-38.87-4.31l-5.65-.62c-.47-.05-.93-.11-1.4-.18-.49-.06-.98-.13-1.47-.18-1.1-.12-1.95-.16-2.77-.13-1.36.05-2.71,1.19-3.39,2.23-7.62,11.59-15.09,23.09-22.72,34.84-3.4,5.24-37.97,78.98-41.81,85.03-1.2,1.9-4.65,4.01-4.65,4.01,0,0-16.72,9.43-21.39,13.03-.72.56-.16,2.48.49,2.74,1.35.55,5.59-1.64,5.59-1.64,0,0,6.48-1.72,9.71-2.57,3.51-.92,7.01-1.87,10.51-2.82,8.41-2.28,67.79-11.38,67.79-11.38,0,0-152.44,158.79-180.75,186.6,1.81-3.84,3.63-7.67,5.45-11.5,4.49-9.47,9.13-19.25,13.6-28.93,6.34-13.74,12.75-27.73,18.96-41.26,6.26-13.67,15.34-33.6,22.23-48.55,23.16-5.82,46.51-11.81,47.81-12.65,3.94-2.55,1.38-4.45,1.38-4.45l-64.56,6.03c-2.84.21-5.68.43-8.52.65-1.41.11-2.82.32-4.31.55l51.83-180.55-1.65-.46c-.59-.16-1.16-.35-1.71-.52-1.26-.4-2.45-.78-3.74-.93-4.46-.53-9.25-1.1-14.11-1.64s-9.17-.98-13.23-1.35c-1.46-.13-2.87.37-4.12.82-.52.19-1.02.36-1.49.49l-1.66.44.62,1.6c.18.46.33.96.5,1.48.4,1.29.81,2.62,1.68,3.75,2.82,3.67,7,5.07,12.32,4.08.46-.08.91-.18,1.37-.27-3.1,9.42-13.64,17.52-23.84,17.87-.91.03-1.83,0-2.74-.1-9.21-1.02-16.99-8.39-19.37-18.35-.8-3.35-1.02-6.97-1.24-10.47-.04-.63-.08-1.26-.12-1.88,0-.27.41-1.04.9-1.44,1.78-1.43,3.76-2.74,5.68-4l.7-.46c.3-.2.72-.35,1.17-.52.26-.1.52-.19.77-.3l1.63-.69-2.22-3.71-1.16.37c-.7.22-1.41.42-2.12.63-1.66.47-3.37.96-4.99,1.72-1.12.53-2.05.74-2.86.65-1.06-.12-2.07-.79-3.18-2.12-1.79-2.14-3.79-4.13-5.72-6.05-1.05-1.05-2.14-2.13-3.17-3.22-1.15-1.21-1.28-1.83-1.25-2.08.05-.42.6-1.01,1.55-1.64,2.11-1.41,4.29-2.81,6.39-4.17,2.21-1.42,4.49-2.89,6.71-4.38.3-.2.56-.31.71-.3.09.01.31.09.74.5.9.86,1.84,1.69,2.75,2.5.39.35.79.7,1.18,1.05l.8.72,2.89-1.55-.56-1.3c-.19-.43-.36-.87-.53-1.31-.41-1.05-.83-2.14-1.45-3.17-1.21-2.03-1.38-4.07-.57-6.83,1.79-6.07,4.18-12.34,9.55-17.01,4.99-4.33,11.17-6.34,17.4-5.65,6.8.75,12.88,4.69,16.68,10.8,2.22,3.56,3.57,7.5,4.72,12.12-.57-.24-1.11-.47-1.66-.69-1.34-.54-2.67-.89-3.95-1.03-3.78-.42-7.18.87-10.09,3.83-2.03,2.06-2.09,3.73-1.78,4.77.3,1.02,1.23,2.36,3.93,2.96,1.1.25,2.29.44,3.63.58s2.75.24,4.03.31c4.25.24,8.5.46,12.75.67,7.16.36,14.57.74,21.84,1.23,4.2.28,6.36-2.19,7.91-4.65,5.4-8.53,10.83-17.25,16.07-25.67l4.3-6.91c4.07-6.52,8.12-13.05,12.17-19.58.42-.67.79-1.36,1.18-2.08.18-.34.37-.68.57-1.04l.67-1.21-1.13-.8c-.77-.54-1.53-1.06-2.29-1.58-1.65-1.13-3.2-2.19-4.69-3.36-5.79-4.57-9.65-10.19-11.48-16.73-2.07-7.4-.78-15.4,3.54-21.96,4.42-6.7,11.47-11.14,19.33-12.18,3.9-.52,8.03-.52,12.6-.02,1.56.17,3.15.4,4.87.7.49.08,1.46.9,1.94,1.8,1.23,2.3,2.33,4.75,3.4,7.12.43.96.86,1.92,1.3,2.87l.55,1.18,3.17-.87-.11-1.28c-.08-.89-.14-1.79-.2-2.68-.14-2.06-.28-4.2-.64-6.3-.46-2.77.13-4.2,2.25-5.49,2.97-1.79,5.89-3.73,8.72-5.6,1.97-1.3,4-2.65,6.02-3.93.72-.45,1.44-.66,2.09-.58.94.1,1.73.79,2.23,1.93,1.79,4.08,3.54,8.27,5.23,12.32.71,1.71,1.43,3.41,2.15,5.12.45,1.07.29,1.76-.61,2.64-1.75,1.71-3.45,3.5-5.09,5.24-.69.73-1.38,1.45-2.07,2.17l-.84.87,1.74,2.73,1.24-.62c.72-.36,1.46-.71,2.19-1.05,1.69-.79,3.44-1.6,5.06-2.66,2.99-1.95,5.54-2,8.9-.18,6.07,3.29,10.89,6.39,14.73,10.85,5.56,6.46,7.72,15.83,5.65,24.45-2.05,8.5-7.87,15.1-16.41,18.59-5.12,2.09-10.71,3-17.08,2.79,3.22-3.89,6.22-8.6,4.27-14.59-.6-1.84-1.88-3.3-3.13-4.71-.53-.6-5.22-3.85-5.22-3.85l.04,3.22c-.05.48-.11.96-.16,1.43-.12,1.05-.25,2.13-.34,3.21-.24,2.66-.46,5.33-.69,7.99-.35,4.05-.71,8.24-1.09,12.35-.39,4.21-.8,8.42-1.2,12.63-.61,6.37-1.25,12.96-1.81,19.45-.24,2.8-.37,5.63-.5,8.38-.08,1.82-.17,3.71-.29,5.56-.15,2.39,1.05,3.82,3.59,4.25,5.43.93,10.96,1.9,16.3,2.85,3.18.56,6.36,1.12,9.54,1.68l3.75.66c5.54.97,11.26,1.98,16.92,2.87.52.08,1.04.15,1.56.21,1.84.2,3.61.24,5.26.1,1.7-.14,2.88-.76,3.52-1.84.66-1.11.62-2.53-.13-4.21-1.5-3.37-5.22-5.93-9.25-6.37-.65-.07-1.31-.09-1.95-.04-1.59.11-3.16.42-4.68.73,3.43-9.5,11.94-17.04,20.75-18.19,1.69-.22,3.42-.23,5.15-.04,8.5.94,16.01,6.68,19.13,14.63,1.83,4.66,2.66,9.87,2.54,15.91,0,.31-.38,1-.91,1.5-1.69,1.59-3.5,3.13-5.24,4.63-.68.58-1.37,1.17-2.04,1.76l-.93.81,1.55,2.91,1.27-.48c.67-.25,1.34-.49,2.01-.73,1.54-.55,3.14-1.12,4.67-1.86.98-.47,1.78-.66,2.45-.59.51.06,1.32.28,2.43,1.57,1.86,2.15,3.89,4.19,5.85,6.16,1.17,1.17,2.38,2.39,3.53,3.6.59.63,1.29,1.52,1.21,2.21-.07.67-.9,1.37-1.58,1.84Z"/>
    <g>
      <path class="st4" d="M359.57,118.79s1.8-.18,3.08,2.73c2.81,6.36,5.65,12.73,8,19.22.5,1.39-10.16,10.2-9.29,11.03.67.63,12.74-6.62,13.91-6.15,20.06,8.06,28.96,20.84,26.25,37.76-2.56,15.95-19.93,26.18-38.32,23.78,4.12-3.9,6.9-8.29,6.42-13.99-.38-4.52-6.03-7.9-6.03-7.9l-5.96,76-43.3-7.39,5.12-8.59"/>
      <path class="st4" d="M309.9,252.32l-40.48-.79,50.19-79.67s-6.12.12-8.93,3.68c-3.54,4.49-3.64,9.69-2.35,15.21-16.67-8.13-25.54-26.23-18.89-40.95,7.06-15.62,21.52-21.39,42.71-17.07,1.1.23,5.86,13.38,6.69,13.27,1.31-.17-1.43-13.85-.15-14.8,5.53-4.12,11.41-7.87,17.26-11.64,2.67-1.72,3.61-.78,3.61-.78"/>
    </g>
    <g>
      <path class="st4" d="M237.84,452.17s-9.07,7.1-15.17,9.55c-5.06,2.03-10.46,3.15-15.61,5.03-1.07.39-2.25.17-3.22-.58,1.58-4.05,4.25-20.79,8.91-32.67,7.17-18.26,23.7-99.52,30.89-117.77,3.51-8.92,7.07-17.82,10.58-26.73.4-1.02.96-1.81,1.94-2.35,15.81-8.86,29.51-18.08,45.32-26.94.14-.08,2.45.31,2.62.29,1.95.42,1.6,1.86,1.12,3.02-3.09,7.56-6.16,15.14-9.43,22.63-2.61,5.98-41.85,120.14-44.81,127.28-3.19,7.69-4.54,13.09-7.97,20.68-1.38,3.05-5.18,18.57-5.18,18.57Z"/>
      <path class="st7" d="M351.99,422.93c-2.65,1.14-99.73,26.32-111.43,28.09,5-.78,8.2-1.78,13.12-2.88.84-.19,1.75-.57,1.2-1.8-.28-.31-.96.43-.98-.3,0-.21.65-.48,1.04-.66,11.78-5.29,10.74-7.38,22.54-12.62,1.34-.59,2.32-1.4,3.11-2.63,11.52-17.81,59.39-111.7,70.99-129.45,1.22-1.86,1.1-3.14-.24-4.85-8.12-10.39-16.14-20.86-24.18-31.3-2.46-3.2-5.2-7.49-7.37-9.6-.57-.55-2.82-2.04-2.57-1.84l-3.05,3.52c-2.7,5.97-5.76,11.77-8.53,17.7-5.02,10.76-10.31,21.39-15.45,32.09-8.11,16.9-37.67,105.48-45.38,122.57-2.57,5.7-8.14,22.7-8.14,22.7,0,0-22.67,12.94-26.01,14.81-.87.49-2.02.74-1.64,2.17.6.04,1.21.15,1.8.1,8.34-.7,2.2-.49,10.53-1.33,5.71-.58,11.58-.17,17.11-1.98,15.31-4.99,28.32-.54,43.43-4.88-6.76,8.9-13.32,17.94-20.01,26.9-5.01,6.71-9.85,13.54-14.91,20.21-3.53,4.66-6.84,9.49-10.4,14.12-6.43,8.36-12.65,16.89-18.9,25.38-7.54,10.24-15.23,20.37-22.44,30.86-3.4,4.95-6.86,9.85-10.6,14.54-3.2,4.01-5.8,8.5-9.53,12.09-1.58,2.02-2.78,4.29-4.19,6.42-.56.85-1.79,1.78-1.02,3.17.94-.01,1.3-.83,1.82-1.37,7.6-7.83,15.17-15.68,22.76-23.52,18.82-19.44,37.66-38.87,56.48-58.32,21.86-22.59,43.7-45.19,65.53-67.8,10.62-10.99,21.2-22.02,31.8-33.03-1.62-1.58,5.14-7.91,3.71-7.29Z"/>
      <path class="st4" d="M176.04,605.41c-1.87,3.07-4.65,5.51-6.15,8.84-.48.84-1.06,1.59-2.36,2.25,2.61-5.45,5.08-10.56,7.5-15.68,13.52-28.62,26.75-57.37,39.77-86.22,5.31-11.76,10.73-23.48,16.09-35.22.44-.96-1.12-4.65-.07-5.16,14.17-6.94,26.16-7.15,40.32-14.11.38-.19.83-.24,1.24-.36,1.23.28.77,1.11.6,1.85-.34,1.49-1.25,2.7-2.11,3.88-8.69,11.98-12.65,20.43-20.97,32.67-4.5,6.62-9.02,13.24-13.57,19.82-8.08,11.67-15.9,23.51-24.03,35.15-5.91,8.46-11.54,17.13-17.57,25.5-4,5.56-7.91,11.19-12.05,16.67-2.4,3.17-5,6.37-6.65,10.11Z"/>
      <path class="st3" d="M176.04,605.41c-.5-1.01.3-1.67.75-2.33,3.14-4.66,6.36-9.26,9.52-13.9,4.09-6.01,8.15-12.03,12.22-18.05,3.39-4.99,6.82-9.96,10.29-14.89,4.93-7,9.51-14.24,14.29-21.35,2.72-4.04,5.58-7.98,8.29-12.03,5.59-8.33,11.49-16.45,16.95-24.87,5.75-8.86,11.89-17.46,17.88-26.17,3.03-4.4,3.93-5.56,6.92-9.98.56-.83,8.62.86,8.62.86,0,0-39.63,53.41-56.77,76.52-14.37,19.39-28.72,38.8-43.08,58.19-1.97,2.66-3.93,5.32-5.9,7.98Z"/>
      <path class="st4" d="M236.67,451.66c3.36-1.17,37.69-20.32,37.69-20.32,0,0,45.29-12.67,79.85-11.86,6.78.16-117.05,32.69-117.55,32.18Z"/>
      <path class="st3" d="M203.85,466.16c11.46-3.19-11.27,3.77,0,0,1.09-.36,32.82-14.5,32.82-14.5,0,0-11.43,9.87-19.36,13.25-2.79,1.19-5.72,2.08-8.29,3.74-2.12.63-4.28.92-6.8.93.62-1.3,1.13-2.36,1.63-3.42Z"/>
    </g>
    <g class="st6">
      <g>
        <g>
          <path class="st7" d="M465.86,293.06s.73-1.34-1.11-3.3c-4.03-4.3-8.05-8.61-12.32-12.59-.92-.85-11.3,4.54-11.66,3.58-.27-.73,9.37-7.73,9.39-8.79.36-18.29-6.65-29.45-20.73-32.94-13.27-3.28-26.98,6.86-31.2,21.98,4.4-1.92,8.74-2.63,13.02-.37,3.39,1.79,9.56,9.96-2.7,8.2-12.45-1.79-85-14.92-86.25-15.15-1.69-.19,2.51,6.08,2.51,6.08l-2.29,17.46"/>
          <path class="st4" d="M314.47,258.73c-.95,8.61,6.16,35.68,6.16,35.68,0,0,45.56,5.12,46.52,5.22,12.5,1.36,24.96,3.16,37.5,4.14,12.34.96,4.54,7.58.84,8.59-4.67,1.27-8.75-.37-12.63-3.2.81,15.67,11.98,28.57,25.64,28.26,14.5-.33,23.77-9.68,27.42-27.61.19-.93-8.48-8.99-8.12-9.6.57-.96,10.31,5.69,11.48,5.01,5.04-2.95,9.91-6.28,14.77-9.59,2.22-1.51,1.8-2.56,1.8-2.56"/>
          <path class="st3" d="M313.95,252.7l-3.16,4.84c-1.14.98-1.78,2.79-.31,3.11,22.96,5,155.26,33.47,155.38,32.41.3-2.63-151.91-40.36-151.91-40.36Z"/>
        </g>
        <polygon class="st4" points="166.25 259.68 304.37 258.25 254.77 283.32 166.25 259.68"/>
        <g>
          <path class="st4" d="M168.2,256.63c-2.34,1.53-2.58,3.44-.75,5.4,4.1,4.37,8.23,8.71,12.55,12.82.67.64,12.1-4.08,12.45-3.41.38.74-10.36,6.89-10.39,8.05-.22,9.03,1.14,17.66,6.54,24.64,9.54,12.31,27.4,12.51,37.91.23,3.19-3.73,5.5-8.39,7.87-13.01-4.49,1.16-8.73,2.44-12.67.1-1.91-1.13-3.82-3.11-4.73-5.25-1.78-4.2,4.55-3.48,4.65-3.47,14.17,1.56,28.34,3.13,42.83,4.73,1.28.05,57.43,6.44,58.54,6.56"/>
          <path class="st7" d="M296.65,257.52c-.25-.03,13.25-5.2,13.25-5.2,0,0-73.38-2.95-84.4-4.17-.1-.01-6.43-.69-3.78-4.4,1.35-1.9,3.65-3.41,5.76-4.1,4.36-1.42,8.21.75,12.35,2.87-1.3-5.02-2.54-10.08-4.84-14.41-7.57-14.28-25.05-17.99-37.05-8.06-6.8,5.63-10.01,13.75-11.77,22.62-.22,1.09,4.01,8.48,3.51,9.1s-5.7-5.53-6.54-5.03c-5.1,3.06-10.08,6.4-15.04,9.77-2.22,1.5-1.86,3.17-1.86,3.17"/>
          <path class="st3" d="M309.9,252.32l-3.7,7.87s-140.08.66-139.96-.51c.28-2.6,143.66-7.36,143.66-7.36Z"/>
        </g>
      </g>
    </g>
    <g>
      <path d="M308.76,189.31c3.44-5.53,6.79-10.91,10.28-16.52-8.97-.4-13.24,9.96-10.28,16.52Z"/>
      <path d="M308.54,192.58l-1.19-2.63c-1.83-4.06-1.25-9.45,1.44-13.42,2.43-3.59,6.1-5.46,10.32-5.27l2.63.12-13.2,21.21ZM316.05,174.68c-2.43.73-3.93,2.43-4.71,3.58-1.43,2.11-2.11,4.71-1.96,7.14l6.67-10.72Z"/>
    </g>
    <polygon class="st3" points="358.76 120.94 306.8 252.19 236.67 451.66 317.22 253.08 358.76 120.94"/>
    <path d="M236.89,283.92s61.28-25.8,64.98-24.21c2.24.28,1.3,2.41.56,2.88-11.45,7.38-50.03,26.2-50.03,26.2l-15.51-4.87Z"/>
    <path d="M350.51,303.65s-35.74-36.89-37.28-39.75c-1.5-.91-.14-4.79,3.11-1.97,10.54,10.39,46.71,37.74,46.71,37.74l-12.54,3.98Z"/>
    <path d="M260.98,251.47s42.79,3.62,44.89,2.02c1.38-.57.45-1.63-.09-1.77-8.39-2.15-35.72-5.92-35.72-5.92l-9.07,5.67Z"/>
    <path d="M369.22,253.74s-47.57-2.79-50.39-2.17c-1.61-.49-3,2.7,1.01,3.28,13.73,1.11,55.83,9.77,55.83,9.77l-6.45-10.87Z"/>
    <path class="st3" d="M354.22,419.48l-118.85,32.41s3.22.22,4.29.1c27.95-3.07,109.19-26.92,109.19-26.92l5.37-5.59Z"/>
  </g>
  
</svg>